<svg width="34" height="31" viewBox="0 0 34 31" fill="none" xmlns="http://www.w3.org/2000/svg">
<rect x="5.33334" y="0.333344" width="25" height="20" rx="2" fill="#1A69B7"/>
<path d="M0.333344 6.86669C0.333344 5.74658 0.333344 5.18653 0.55133 4.75871C0.743077 4.38238 1.04904 4.07642 1.42536 3.88467C1.85319 3.66669 2.41324 3.66669 3.53334 3.66669H11.9541C12.5802 3.66669 12.8933 3.66669 13.1775 3.75299C13.4291 3.82939 13.6631 3.95465 13.8662 4.1216C14.0957 4.31017 14.2693 4.57066 14.6167 5.09165L16.05 7.24173C16.3974 7.76271 16.571 8.0232 16.8005 8.21178C17.0036 8.37873 17.2376 8.50398 17.4892 8.58038C17.7734 8.66669 18.0865 8.66669 18.7126 8.66669H30.4667C31.5868 8.66669 32.1468 8.66669 32.5747 8.88467C32.951 9.07642 33.257 9.38238 33.4487 9.75871C33.6667 10.1865 33.6667 10.7466 33.6667 11.8667V27.1334C33.6667 28.2535 33.6667 28.8135 33.4487 29.2413C33.257 29.6177 32.951 29.9236 32.5747 30.1154C32.1468 30.3334 31.5868 30.3334 30.4667 30.3334H3.53334C2.41324 30.3334 1.85319 30.3334 1.42536 30.1154C1.04904 29.9236 0.743077 29.6177 0.55133 29.2413C0.333344 28.8135 0.333344 28.2535 0.333344 27.1334V6.86669Z" fill="#1976D2"/>
</svg>
